<?xml version="1.0" encoding="UTF-8"?>
<!DOCTYPE svg PUBLIC "-//W3C//DTD SVG 1.1//EN" "http://www.w3.org/Graphics/SVG/1.1/DTD/svg11.dtd">
<svg version="1.2" width="280mm" height="157.5mm" viewBox="0 0 28000 15750" preserveAspectRatio="xMidYMid" fill-rule="evenodd" stroke-width="28.222" stroke-linejoin="round" xmlns="http://www.w3.org/2000/svg" xmlns:ooo="http://xml.openoffice.org/svg/export" xmlns:xlink="http://www.w3.org/1999/xlink" xmlns:presentation="http://sun.com/xmlns/staroffice/presentation" xmlns:smil="http://www.w3.org/2001/SMIL20/" xmlns:anim="urn:oasis:names:tc:opendocument:xmlns:animation:1.0" xml:space="preserve">
 <defs class="ClipPathGroup">
  <clipPath id="presentation_clip_path" clipPathUnits="userSpaceOnUse">
   <rect x="0" y="0" width="28000" height="15750"/>
  </clipPath>
  <clipPath id="presentation_clip_path_shrink" clipPathUnits="userSpaceOnUse">
   <rect x="28" y="15" width="27944" height="15719"/>
  </clipPath>
 </defs>
 <defs class="TextShapeIndex">
  <g ooo:slide="id1" ooo:id-list="id3 id4 id5 id6 id7"/>
 </defs>
 <defs class="EmbeddedBulletChars">
  <g id="bullet-char-template-57356" transform="scale(0.00048828125,-0.00048828125)">
   <path d="M 580,1141 L 1163,571 580,0 -4,571 580,1141 Z"/>
  </g>
  <g id="bullet-char-template-57354" transform="scale(0.00048828125,-0.00048828125)">
   <path d="M 8,1128 L 1137,1128 1137,0 8,0 8,1128 Z"/>
  </g>
  <g id="bullet-char-template-10146" transform="scale(0.00048828125,-0.00048828125)">
   <path d="M 174,0 L 602,739 174,1481 1456,739 174,0 Z M 1358,739 L 309,1346 659,739 1358,739 Z"/>
  </g>
  <g id="bullet-char-template-10132" transform="scale(0.00048828125,-0.00048828125)">
   <path d="M 2015,739 L 1276,0 717,0 1260,543 174,543 174,936 1260,936 717,1481 1274,1481 2015,739 Z"/>
  </g>
  <g id="bullet-char-template-10007" transform="scale(0.00048828125,-0.00048828125)">
   <path d="M 0,-2 C -7,14 -16,27 -25,37 L 356,567 C 262,823 215,952 215,954 215,979 228,992 255,992 264,992 276,990 289,987 310,991 331,999 354,1012 L 381,999 492,748 772,1049 836,1024 860,1049 C 881,1039 901,1025 922,1006 886,937 835,863 770,784 769,783 710,716 594,584 L 774,223 C 774,196 753,168 711,139 L 727,119 C 717,90 699,76 672,76 641,76 570,178 457,381 L 164,-76 C 142,-110 111,-127 72,-127 30,-127 9,-110 8,-76 1,-67 -2,-52 -2,-32 -2,-23 -1,-13 0,-2 Z"/>
  </g>
  <g id="bullet-char-template-10004" transform="scale(0.00048828125,-0.00048828125)">
   <path d="M 285,-33 C 182,-33 111,30 74,156 52,228 41,333 41,471 41,549 55,616 82,672 116,743 169,778 240,778 293,778 328,747 346,684 L 369,508 C 377,444 397,411 428,410 L 1163,1116 C 1174,1127 1196,1133 1229,1133 1271,1133 1292,1118 1292,1087 L 1292,965 C 1292,929 1282,901 1262,881 L 442,47 C 390,-6 338,-33 285,-33 Z"/>
  </g>
  <g id="bullet-char-template-9679" transform="scale(0.00048828125,-0.00048828125)">
   <path d="M 813,0 C 632,0 489,54 383,161 276,268 223,411 223,592 223,773 276,916 383,1023 489,1130 632,1184 813,1184 992,1184 1136,1130 1245,1023 1353,916 1407,772 1407,592 1407,412 1353,268 1245,161 1136,54 992,0 813,0 Z"/>
  </g>
  <g id="bullet-char-template-8226" transform="scale(0.00048828125,-0.00048828125)">
   <path d="M 346,457 C 273,457 209,483 155,535 101,586 74,649 74,723 74,796 101,859 155,911 209,963 273,989 346,989 419,989 480,963 531,910 582,859 608,796 608,723 608,648 583,586 532,535 482,483 420,457 346,457 Z"/>
  </g>
  <g id="bullet-char-template-8211" transform="scale(0.00048828125,-0.00048828125)">
   <path d="M -4,459 L 1135,459 1135,606 -4,606 -4,459 Z"/>
  </g>
  <g id="bullet-char-template-61548" transform="scale(0.00048828125,-0.00048828125)">
   <path d="M 173,740 C 173,903 231,1043 346,1159 462,1274 601,1332 765,1332 928,1332 1067,1274 1183,1159 1299,1043 1357,903 1357,740 1357,577 1299,437 1183,322 1067,206 928,148 765,148 601,148 462,206 346,322 231,437 173,577 173,740 Z"/>
  </g>
 </defs>
 <g>
  <g id="id2" class="Master_Slide">
   <g id="bg-id2" class="Background"/>
   <g id="bo-id2" class="BackgroundObjects"/>
  </g>
 </g>
 <g class="SlideGroup">
  <g>
   <g id="container-id1">
    <g id="id1" class="Slide" clip-path="url(#presentation_clip_path)">
     <g class="Page">
      <g class="Group">
       <g class="com.sun.star.drawing.PolyPolygonShape">
        <g id="id3">
         <rect class="BoundingBox" stroke="none" fill="none" x="2960" y="4285" width="4795" height="3755"/>
         <path fill="rgb(0,0,0)" stroke="none" d="M 6918,8038 L 5344,4810 3785,8038 2960,8038 4835,4285 5869,4285 7754,8038 6918,8038 Z"/>
        </g>
       </g>
       <g class="com.sun.star.drawing.PolyPolygonShape">
        <g id="id4">
         <rect class="BoundingBox" stroke="none" fill="none" x="8198" y="6599" width="2829" height="2829"/>
         <path fill="rgb(201,33,30)" stroke="none" d="M 11025,7995 L 11019,8137 10999,8274 10967,8406 10946,8471 10921,8534 10863,8657 10792,8776 10707,8890 10610,8999 10503,9099 10391,9186 10332,9225 10273,9260 10211,9292 10148,9320 10084,9345 10018,9367 9951,9385 9883,9400 9741,9420 9594,9427 9452,9420 9316,9401 9250,9386 9185,9368 9122,9346 9060,9321 8999,9293 8939,9262 8881,9227 8824,9189 8713,9103 8608,9004 8512,8896 8429,8782 8359,8664 8328,8603 8301,8540 8277,8477 8256,8412 8224,8278 8205,8139 8198,7995 8205,7851 8224,7713 8239,7647 8256,7581 8277,7517 8301,7454 8329,7393 8359,7333 8393,7275 8430,7218 8514,7108 8611,7004 8716,6909 8827,6827 8942,6757 9002,6727 9063,6700 9125,6677 9188,6656 9319,6625 9454,6606 9594,6599 9739,6606 9878,6625 10013,6657 10078,6678 10142,6702 10204,6729 10266,6759 10384,6830 10497,6913 10605,7009 10703,7114 10789,7225 10827,7282 10861,7340 10892,7400 10920,7461 10945,7523 10966,7587 10984,7651 10999,7718 11019,7854 11025,7995 Z"/>
        </g>
       </g>
       <g class="com.sun.star.drawing.PolyPolygonShape">
        <g id="id5">
         <rect class="BoundingBox" stroke="none" fill="none" x="11234" y="8100" width="4978" height="3367"/>
         <path fill="rgb(0,0,0)" stroke="none" d="M 13946,8101 L 13783,8106 13630,8123 13487,8151 13354,8189 13231,8238 13118,8297 13015,8366 12922,8445 12839,8534 12766,8633 12703,8741 12650,8858 12607,8984 12574,9120 12551,9263 12538,9416 12538,9657 12684,9657 12694,9609 12706,9565 12722,9525 12740,9487 12760,9453 12782,9422 12806,9394 12831,9370 12858,9348 12885,9330 12913,9314 12941,9301 12969,9292 12996,9285 13023,9281 13049,9279 13131,9283 13205,9296 13272,9315 13331,9340 13383,9370 13429,9404 13469,9442 13503,9481 13532,9522 13556,9563 13575,9603 13589,9642 13600,9678 13607,9711 13611,9739 13613,9762 13606,9870 13588,9973 13557,10069 13513,10158 13457,10240 13389,10316 13308,10385 13215,10447 13109,10502 12992,10549 12862,10590 12719,10624 12565,10650 12398,10669 12027,10684 11234,10684 11237,11022 11243,11156 11254,11267 11262,11313 11273,11353 11285,11388 11292,11402 11300,11416 11309,11427 11318,11438 11328,11446 11339,11453 11351,11459 11363,11463 11377,11465 11391,11466 12204,11466 12331,11462 12456,11451 12580,11433 12703,11407 12825,11374 12945,11334 13064,11286 13182,11231 13299,11169 13415,11099 13642,10938 13864,10747 14082,10527 14248,10747 14418,10938 14505,11022 14592,11099 14680,11169 14769,11231 14859,11286 14950,11334 15041,11374 15134,11407 15227,11433 15321,11451 15415,11462 15511,11466 16053,11466 16067,11465 16079,11463 16091,11459 16102,11453 16112,11446 16122,11438 16131,11427 16140,11416 16154,11388 16167,11353 16178,11313 16186,11267 16199,11156 16206,11022 16210,10684 15501,10684 15437,10681 15373,10674 15310,10661 15249,10643 15188,10620 15128,10592 15068,10559 15010,10521 14953,10479 14897,10431 14842,10379 14788,10321 14683,10192 14583,10045 14853,9755 14983,9602 15102,9446 15204,9290 15247,9213 15284,9136 15314,9060 15336,8986 15350,8913 15354,8841 15353,8801 15348,8761 15339,8722 15328,8684 15295,8610 15250,8541 15194,8476 15126,8415 15048,8358 14959,8307 14861,8261 14754,8220 14638,8184 14514,8155 14382,8132 14243,8115 13946,8101 Z"/>
        </g>
       </g>
       <g class="com.sun.star.drawing.PolyPolygonShape">
        <g id="id6">
         <rect class="BoundingBox" stroke="none" fill="none" x="16842" y="6560" width="2610" height="2610"/>
         <path fill="rgb(201,33,30)" stroke="none" d="M 18146,6560 L 18013,6567 17883,6587 17758,6619 17639,6663 17525,6718 17417,6783 17317,6858 17224,6943 17140,7035 17065,7136 17000,7243 16945,7357 16901,7477 16869,7602 16849,7731 16842,7864 16849,7998 16869,8127 16901,8252 16945,8372 17000,8486 17065,8593 17140,8694 17224,8786 17317,8871 17417,8946 17525,9011 17639,9066 17758,9110 17883,9142 18013,9162 18146,9168 18278,9162 18406,9142 18530,9110 18649,9066 18763,9012 18870,8947 18971,8872 19064,8789 19149,8698 19224,8599 19290,8493 19346,8381 19391,8263 19423,8141 19443,8015 19450,7886 19443,7749 19424,7616 19392,7488 19349,7366 19295,7250 19230,7141 19155,7039 19072,6945 18980,6860 18879,6784 18772,6719 18658,6663 18538,6619 18412,6587 18281,6567 18146,6560 Z"/>
        </g>
       </g>
       <g class="com.sun.star.drawing.PolyPolygonShape">
        <g id="id7">
         <rect class="BoundingBox" stroke="none" fill="none" x="20247" y="4285" width="4796" height="3755"/>
         <path fill="rgb(0,0,0)" stroke="none" d="M 24206,8038 L 22632,4810 21073,8038 20248,8038 22123,4285 23156,4285 25041,8038 24206,8038 Z"/>
        </g>
       </g>
      </g>
     </g>
    </g>
   </g>
  </g>
 </g>
</svg>