<?xml version="1.0" encoding="UTF-8"?>
<!DOCTYPE svg PUBLIC "-//W3C//DTD SVG 1.1//EN" "http://www.w3.org/Graphics/SVG/1.1/DTD/svg11.dtd">
<svg version="1.2" width="280mm" height="157.5mm" viewBox="0 0 28000 15750" preserveAspectRatio="xMidYMid" fill-rule="evenodd" stroke-width="28.222" stroke-linejoin="round" xmlns="http://www.w3.org/2000/svg" xmlns:ooo="http://xml.openoffice.org/svg/export" xmlns:xlink="http://www.w3.org/1999/xlink" xmlns:presentation="http://sun.com/xmlns/staroffice/presentation" xmlns:smil="http://www.w3.org/2001/SMIL20/" xmlns:anim="urn:oasis:names:tc:opendocument:xmlns:animation:1.0" xml:space="preserve">
 <defs class="ClipPathGroup">
  <clipPath id="presentation_clip_path" clipPathUnits="userSpaceOnUse">
   <rect x="0" y="0" width="28000" height="15750"/>
  </clipPath>
  <clipPath id="presentation_clip_path_shrink" clipPathUnits="userSpaceOnUse">
   <rect x="28" y="15" width="27944" height="15719"/>
  </clipPath>
 </defs>
 <defs class="TextShapeIndex">
  <g ooo:slide="id1" ooo:id-list="id3 id4 id5 id6 id7"/>
 </defs>
 <defs class="EmbeddedBulletChars">
  <g id="bullet-char-template-57356" transform="scale(0.00048828125,-0.00048828125)">
   <path d="M 580,1141 L 1163,571 580,0 -4,571 580,1141 Z"/>
  </g>
  <g id="bullet-char-template-57354" transform="scale(0.00048828125,-0.00048828125)">
   <path d="M 8,1128 L 1137,1128 1137,0 8,0 8,1128 Z"/>
  </g>
  <g id="bullet-char-template-10146" transform="scale(0.00048828125,-0.00048828125)">
   <path d="M 174,0 L 602,739 174,1481 1456,739 174,0 Z M 1358,739 L 309,1346 659,739 1358,739 Z"/>
  </g>
  <g id="bullet-char-template-10132" transform="scale(0.00048828125,-0.00048828125)">
   <path d="M 2015,739 L 1276,0 717,0 1260,543 174,543 174,936 1260,936 717,1481 1274,1481 2015,739 Z"/>
  </g>
  <g id="bullet-char-template-10007" transform="scale(0.00048828125,-0.00048828125)">
   <path d="M 0,-2 C -7,14 -16,27 -25,37 L 356,567 C 262,823 215,952 215,954 215,979 228,992 255,992 264,992 276,990 289,987 310,991 331,999 354,1012 L 381,999 492,748 772,1049 836,1024 860,1049 C 881,1039 901,1025 922,1006 886,937 835,863 770,784 769,783 710,716 594,584 L 774,223 C 774,196 753,168 711,139 L 727,119 C 717,90 699,76 672,76 641,76 570,178 457,381 L 164,-76 C 142,-110 111,-127 72,-127 30,-127 9,-110 8,-76 1,-67 -2,-52 -2,-32 -2,-23 -1,-13 0,-2 Z"/>
  </g>
  <g id="bullet-char-template-10004" transform="scale(0.00048828125,-0.00048828125)">
   <path d="M 285,-33 C 182,-33 111,30 74,156 52,228 41,333 41,471 41,549 55,616 82,672 116,743 169,778 240,778 293,778 328,747 346,684 L 369,508 C 377,444 397,411 428,410 L 1163,1116 C 1174,1127 1196,1133 1229,1133 1271,1133 1292,1118 1292,1087 L 1292,965 C 1292,929 1282,901 1262,881 L 442,47 C 390,-6 338,-33 285,-33 Z"/>
  </g>
  <g id="bullet-char-template-9679" transform="scale(0.00048828125,-0.00048828125)">
   <path d="M 813,0 C 632,0 489,54 383,161 276,268 223,411 223,592 223,773 276,916 383,1023 489,1130 632,1184 813,1184 992,1184 1136,1130 1245,1023 1353,916 1407,772 1407,592 1407,412 1353,268 1245,161 1136,54 992,0 813,0 Z"/>
  </g>
  <g id="bullet-char-template-8226" transform="scale(0.00048828125,-0.00048828125)">
   <path d="M 346,457 C 273,457 209,483 155,535 101,586 74,649 74,723 74,796 101,859 155,911 209,963 273,989 346,989 419,989 480,963 531,910 582,859 608,796 608,723 608,648 583,586 532,535 482,483 420,457 346,457 Z"/>
  </g>
  <g id="bullet-char-template-8211" transform="scale(0.00048828125,-0.00048828125)">
   <path d="M -4,459 L 1135,459 1135,606 -4,606 -4,459 Z"/>
  </g>
  <g id="bullet-char-template-61548" transform="scale(0.00048828125,-0.00048828125)">
   <path d="M 173,740 C 173,903 231,1043 346,1159 462,1274 601,1332 765,1332 928,1332 1067,1274 1183,1159 1299,1043 1357,903 1357,740 1357,577 1299,437 1183,322 1067,206 928,148 765,148 601,148 462,206 346,322 231,437 173,577 173,740 Z"/>
  </g>
 </defs>
 <g>
  <g id="id2" class="Master_Slide">
   <g id="bg-id2" class="Background"/>
   <g id="bo-id2" class="BackgroundObjects"/>
  </g>
 </g>
 <g class="SlideGroup">
  <g>
   <g id="container-id1">
    <g id="id1" class="Slide" clip-path="url(#presentation_clip_path)">
     <g class="Page">
      <g class="Group">
       <g class="com.sun.star.drawing.PolyPolygonShape">
        <g id="id3">
         <rect class="BoundingBox" stroke="none" fill="none" x="822" y="3970" width="2942" height="8235"/>
         <path fill="rgb(0,0,0)" stroke="none" d="M 2263,12204 L 2103,11973 1951,11735 1808,11491 1672,11241 1546,10984 1427,10722 1316,10453 1214,10178 1122,9898 1043,9614 975,9326 920,9033 877,8737 846,8437 828,8132 822,7824 826,7566 840,7311 862,7056 894,6803 934,6552 984,6302 1042,6054 1110,5808 1186,5564 1268,5324 1358,5088 1455,4857 1559,4629 1671,4405 1789,4186 1915,3970 3345,3970 3206,4190 3076,4413 2956,4640 2845,4869 2743,5102 2651,5337 2569,5576 2496,5818 2432,6063 2376,6310 2329,6562 2291,6816 2261,7073 2240,7334 2227,7597 2223,7864 2230,8170 2251,8472 2285,8769 2334,9063 2397,9353 2474,9639 2565,9920 2669,10198 2905,10736 3166,11250 3452,11740 3763,12204 2263,12204 Z"/>
        </g>
       </g>
       <g class="com.sun.star.drawing.PolyPolygonShape">
        <g id="id4">
         <rect class="BoundingBox" stroke="none" fill="none" x="5262" y="3546" width="6031" height="6239"/>
         <path fill="rgb(201,33,30)" stroke="none" d="M 8292,8691 L 8180,8689 8072,8681 7969,8667 7870,8648 7777,8624 7689,8594 7608,8560 7533,8519 7466,8473 7405,8422 7353,8366 7310,8304 7275,8237 7250,8164 7234,8086 7229,8002 7234,7919 7250,7841 7275,7768 7310,7701 7353,7639 7405,7582 7466,7531 7533,7485 7608,7445 7689,7410 7777,7380 7870,7356 7969,7337 8072,7324 8180,7315 8292,7313 8402,7315 8509,7324 8611,7337 8709,7356 8803,7380 8890,7410 8972,7445 9047,7485 9115,7531 9176,7582 9228,7639 9272,7701 9308,7768 9333,7841 9349,7919 9355,8002 9349,8086 9333,8164 9308,8237 9272,8304 9228,8366 9176,8422 9115,8473 9047,8519 8972,8560 8890,8594 8803,8624 8709,8648 8611,8667 8509,8681 8402,8689 8292,8691 Z M 8292,6210 L 8037,6219 7792,6244 7557,6286 7334,6343 7122,6415 6924,6501 6741,6601 6572,6713 6420,6838 6284,6975 6167,7123 6069,7281 5991,7448 5934,7625 5900,7810 5888,8002 5900,8195 5934,8379 5991,8556 6069,8722 6167,8879 6284,9026 6420,9162 6572,9286 6741,9398 6924,9496 7122,9582 7334,9653 7557,9709 7792,9750 8037,9776 8292,9784 8546,9776 8791,9750 9025,9709 9248,9653 9459,9582 9656,9496 9839,9398 10007,9286 10158,9162 10293,9026 10409,8879 10506,8722 10583,8556 10640,8379 10674,8195 10686,8002 10674,7810 10640,7625 10583,7448 10506,7281 10409,7123 10293,6975 10158,6838 10007,6713 9839,6601 9656,6501 9459,6415 9248,6343 9025,6286 8791,6244 8546,6219 8292,6210 Z M 8947,4669 L 8947,3546 7636,3546 7636,4669 5262,4669 5262,5731 11292,5731 11292,4669 8947,4669 Z"/>
        </g>
       </g>
       <g class="com.sun.star.drawing.PolyPolygonShape">
        <g id="id5">
         <rect class="BoundingBox" stroke="none" fill="none" x="13011" y="8775" width="1939" height="1938"/>
         <path fill="rgb(201,33,30)" stroke="none" d="M 13985,10712 L 13887,10707 13793,10694 13747,10684 13702,10671 13658,10657 13615,10640 13572,10621 13531,10599 13450,10550 13373,10491 13299,10424 13231,10350 13173,10273 13123,10193 13102,10151 13083,10109 13066,10065 13051,10021 13039,9976 13029,9930 13015,9836 13011,9738 13015,9639 13029,9543 13039,9497 13051,9451 13066,9407 13083,9364 13102,9321 13123,9280 13147,9240 13173,9200 13201,9162 13231,9125 13299,9053 13373,8988 13450,8932 13531,8884 13615,8845 13658,8828 13702,8814 13793,8792 13887,8779 13985,8775 14082,8779 14176,8792 14267,8814 14311,8828 14354,8845 14396,8863 14437,8884 14517,8932 14593,8988 14665,9053 14732,9125 14789,9200 14815,9240 14838,9280 14859,9321 14878,9364 14894,9407 14909,9451 14921,9497 14931,9543 14944,9639 14948,9738 14944,9836 14931,9930 14921,9976 14909,10021 14894,10065 14878,10109 14859,10151 14838,10193 14789,10273 14732,10350 14665,10424 14593,10491 14517,10550 14477,10576 14437,10599 14396,10621 14354,10640 14311,10657 14267,10671 14222,10684 14176,10694 14082,10707 13985,10712 Z"/>
        </g>
       </g>
       <g class="com.sun.star.drawing.PolyPolygonShape">
        <g id="id6">
         <rect class="BoundingBox" stroke="none" fill="none" x="16379" y="3546" width="6031" height="6239"/>
         <path fill="rgb(201,33,30)" stroke="none" d="M 19409,8691 L 19297,8689 19189,8681 19086,8667 18987,8648 18894,8624 18806,8594 18725,8560 18650,8519 18583,8473 18522,8422 18470,8366 18427,8304 18392,8237 18367,8164 18351,8086 18346,8002 18351,7919 18367,7841 18392,7768 18427,7701 18470,7639 18522,7582 18583,7531 18650,7485 18725,7445 18806,7410 18894,7380 18987,7356 19086,7337 19189,7324 19297,7315 19409,7313 19519,7315 19626,7324 19728,7337 19826,7356 19920,7380 20007,7410 20089,7445 20164,7485 20232,7531 20293,7582 20345,7639 20389,7701 20425,7768 20450,7841 20466,7919 20472,8002 20466,8086 20450,8164 20425,8237 20389,8304 20345,8366 20293,8422 20232,8473 20164,8519 20089,8560 20007,8594 19920,8624 19826,8648 19728,8667 19626,8681 19519,8689 19409,8691 Z M 19409,6210 L 19154,6219 18909,6244 18674,6286 18451,6343 18239,6415 18041,6501 17858,6601 17689,6713 17537,6838 17401,6975 17284,7123 17186,7281 17108,7448 17051,7625 17017,7810 17005,8002 17017,8195 17051,8379 17108,8556 17186,8722 17284,8879 17401,9026 17537,9162 17689,9286 17858,9398 18041,9496 18239,9582 18451,9653 18674,9709 18909,9750 19154,9776 19409,9784 19663,9776 19908,9750 20142,9709 20365,9653 20576,9582 20773,9496 20956,9398 21124,9286 21275,9162 21410,9026 21526,8879 21623,8722 21700,8556 21757,8379 21791,8195 21803,8002 21791,7810 21757,7625 21700,7448 21623,7281 21526,7123 21410,6975 21275,6838 21124,6713 20956,6601 20773,6501 20576,6415 20365,6343 20142,6286 19908,6244 19663,6219 19409,6210 Z M 20064,4669 L 20064,3546 18753,3546 18753,4669 16379,4669 16379,5731 22409,5731 22409,4669 20064,4669 Z"/>
        </g>
       </g>
       <g class="com.sun.star.drawing.PolyPolygonShape">
        <g id="id7">
         <rect class="BoundingBox" stroke="none" fill="none" x="24238" y="3970" width="2943" height="8235"/>
         <path fill="rgb(0,0,0)" stroke="none" d="M 24238,12204 L 24399,11975 24552,11740 24840,11250 25101,10736 25336,10198 25439,9920 25529,9639 25605,9353 25667,9063 25715,8769 25750,8472 25771,8170 25778,7864 25773,7597 25761,7334 25740,7073 25711,6816 25673,6562 25627,6310 25572,6063 25509,5818 25437,5576 25355,5337 25264,5102 25162,4869 25050,4640 24929,4413 24797,4190 24655,3970 26086,3970 26214,4186 26334,4405 26446,4629 26551,4857 26649,5088 26739,5324 26821,5564 26895,5808 26962,6054 27019,6302 27068,6552 27108,6803 27139,7056 27161,7311 27174,7566 27179,7824 27172,8132 27154,8437 27123,8737 27080,9033 27025,9326 26958,9614 26878,9898 26786,10178 26684,10453 26574,10722 26456,10984 26330,11241 26197,11491 26055,11735 25906,11973 25748,12204 24238,12204 Z"/>
        </g>
       </g>
      </g>
     </g>
    </g>
   </g>
  </g>
 </g>
</svg>