<?xml version="1.0" encoding="UTF-8"?>
<!DOCTYPE svg PUBLIC "-//W3C//DTD SVG 1.1//EN" "http://www.w3.org/Graphics/SVG/1.1/DTD/svg11.dtd">
<svg version="1.2" width="280mm" height="157.5mm" viewBox="0 0 28000 15750" preserveAspectRatio="xMidYMid" fill-rule="evenodd" stroke-width="28.222" stroke-linejoin="round" xmlns="http://www.w3.org/2000/svg" xmlns:ooo="http://xml.openoffice.org/svg/export" xmlns:xlink="http://www.w3.org/1999/xlink" xmlns:presentation="http://sun.com/xmlns/staroffice/presentation" xmlns:smil="http://www.w3.org/2001/SMIL20/" xmlns:anim="urn:oasis:names:tc:opendocument:xmlns:animation:1.0" xml:space="preserve">
 <defs class="ClipPathGroup">
  <clipPath id="presentation_clip_path" clipPathUnits="userSpaceOnUse">
   <rect x="0" y="0" width="28000" height="15750"/>
  </clipPath>
  <clipPath id="presentation_clip_path_shrink" clipPathUnits="userSpaceOnUse">
   <rect x="28" y="15" width="27944" height="15719"/>
  </clipPath>
 </defs>
 <defs class="TextShapeIndex">
  <g ooo:slide="id1" ooo:id-list="id3 id4 id5 id6 id7 id8 id9"/>
 </defs>
 <defs class="EmbeddedBulletChars">
  <g id="bullet-char-template-57356" transform="scale(0.00048828125,-0.00048828125)">
   <path d="M 580,1141 L 1163,571 580,0 -4,571 580,1141 Z"/>
  </g>
  <g id="bullet-char-template-57354" transform="scale(0.00048828125,-0.00048828125)">
   <path d="M 8,1128 L 1137,1128 1137,0 8,0 8,1128 Z"/>
  </g>
  <g id="bullet-char-template-10146" transform="scale(0.00048828125,-0.00048828125)">
   <path d="M 174,0 L 602,739 174,1481 1456,739 174,0 Z M 1358,739 L 309,1346 659,739 1358,739 Z"/>
  </g>
  <g id="bullet-char-template-10132" transform="scale(0.00048828125,-0.00048828125)">
   <path d="M 2015,739 L 1276,0 717,0 1260,543 174,543 174,936 1260,936 717,1481 1274,1481 2015,739 Z"/>
  </g>
  <g id="bullet-char-template-10007" transform="scale(0.00048828125,-0.00048828125)">
   <path d="M 0,-2 C -7,14 -16,27 -25,37 L 356,567 C 262,823 215,952 215,954 215,979 228,992 255,992 264,992 276,990 289,987 310,991 331,999 354,1012 L 381,999 492,748 772,1049 836,1024 860,1049 C 881,1039 901,1025 922,1006 886,937 835,863 770,784 769,783 710,716 594,584 L 774,223 C 774,196 753,168 711,139 L 727,119 C 717,90 699,76 672,76 641,76 570,178 457,381 L 164,-76 C 142,-110 111,-127 72,-127 30,-127 9,-110 8,-76 1,-67 -2,-52 -2,-32 -2,-23 -1,-13 0,-2 Z"/>
  </g>
  <g id="bullet-char-template-10004" transform="scale(0.00048828125,-0.00048828125)">
   <path d="M 285,-33 C 182,-33 111,30 74,156 52,228 41,333 41,471 41,549 55,616 82,672 116,743 169,778 240,778 293,778 328,747 346,684 L 369,508 C 377,444 397,411 428,410 L 1163,1116 C 1174,1127 1196,1133 1229,1133 1271,1133 1292,1118 1292,1087 L 1292,965 C 1292,929 1282,901 1262,881 L 442,47 C 390,-6 338,-33 285,-33 Z"/>
  </g>
  <g id="bullet-char-template-9679" transform="scale(0.00048828125,-0.00048828125)">
   <path d="M 813,0 C 632,0 489,54 383,161 276,268 223,411 223,592 223,773 276,916 383,1023 489,1130 632,1184 813,1184 992,1184 1136,1130 1245,1023 1353,916 1407,772 1407,592 1407,412 1353,268 1245,161 1136,54 992,0 813,0 Z"/>
  </g>
  <g id="bullet-char-template-8226" transform="scale(0.00048828125,-0.00048828125)">
   <path d="M 346,457 C 273,457 209,483 155,535 101,586 74,649 74,723 74,796 101,859 155,911 209,963 273,989 346,989 419,989 480,963 531,910 582,859 608,796 608,723 608,648 583,586 532,535 482,483 420,457 346,457 Z"/>
  </g>
  <g id="bullet-char-template-8211" transform="scale(0.00048828125,-0.00048828125)">
   <path d="M -4,459 L 1135,459 1135,606 -4,606 -4,459 Z"/>
  </g>
  <g id="bullet-char-template-61548" transform="scale(0.00048828125,-0.00048828125)">
   <path d="M 173,740 C 173,903 231,1043 346,1159 462,1274 601,1332 765,1332 928,1332 1067,1274 1183,1159 1299,1043 1357,903 1357,740 1357,577 1299,437 1183,322 1067,206 928,148 765,148 601,148 462,206 346,322 231,437 173,577 173,740 Z"/>
  </g>
 </defs>
 <g>
  <g id="id2" class="Master_Slide">
   <g id="bg-id2" class="Background"/>
   <g id="bo-id2" class="BackgroundObjects"/>
  </g>
 </g>
 <g class="SlideGroup">
  <g>
   <g id="container-id1">
    <g id="id1" class="Slide" clip-path="url(#presentation_clip_path)">
     <g class="Page">
      <g class="Group">
       <g class="com.sun.star.drawing.PolyPolygonShape">
        <g id="id3">
         <rect class="BoundingBox" stroke="none" fill="none" x="809" y="5359" width="4690" height="4689"/>
         <path fill="rgb(0,0,0)" stroke="none" d="M 810,5528 L 5329,10047 5497,9878 979,5359 810,5528 Z"/>
        </g>
       </g>
       <g class="com.sun.star.drawing.PolyPolygonShape">
        <g id="id4">
         <rect class="BoundingBox" stroke="none" fill="none" x="6229" y="6272" width="1472" height="4120"/>
         <path fill="rgb(0,0,0)" stroke="none" d="M 6950,10391 L 6870,10275 6794,10156 6723,10034 6655,9909 6592,9781 6532,9649 6477,9515 6426,9378 6380,9237 6340,9095 6307,8951 6279,8805 6257,8657 6242,8506 6233,8354 6230,8200 6232,8071 6239,7943 6250,7816 6266,7689 6286,7564 6311,7439 6340,7315 6374,7191 6412,7070 6453,6950 6498,6832 6547,6716 6599,6602 6654,6490 6713,6380 6776,6272 7491,6272 7422,6382 7357,6494 7297,6607 7241,6722 7190,6838 7144,6956 7103,7075 7067,7196 7035,7319 7007,7443 6983,7569 6964,7696 6949,7824 6939,7955 6932,8087 6930,8220 6934,8373 6944,8524 6962,8673 6986,8820 7017,8965 7056,9108 7101,9249 7154,9387 7272,9657 7402,9914 7545,10159 7700,10391 6950,10391 Z"/>
        </g>
       </g>
       <g class="com.sun.star.drawing.PolyPolygonShape">
        <g id="id5">
         <rect class="BoundingBox" stroke="none" fill="none" x="8501" y="5424" width="4561" height="4563"/>
         <path fill="rgb(201,33,30)" stroke="none" d="M 10781,5424 L 10547,5436 10321,5471 10102,5527 9892,5603 9693,5699 9505,5813 9330,5944 9168,6091 9021,6253 8890,6429 8776,6617 8680,6816 8604,7026 8548,7244 8513,7471 8501,7705 8513,7938 8548,8165 8604,8384 8680,8594 8776,8793 8890,8981 9021,9156 9168,9318 9330,9465 9505,9596 9693,9711 9892,9806 10102,9883 10321,9939 10547,9973 10781,9985 11014,9973 11241,9939 11459,9883 11669,9806 11868,9711 12056,9596 12232,9465 12393,9318 12540,9156 12671,8981 12785,8793 12881,8594 12958,8384 13014,8165 13048,7938 13060,7705 13048,7471 13014,7244 12958,7026 12881,6816 12785,6617 12671,6429 12540,6253 12393,6091 12232,5944 12056,5813 11868,5699 11669,5603 11459,5527 11241,5471 11014,5436 10781,5424 Z M 10781,6035 L 10951,6044 11116,6069 11276,6110 11429,6167 11575,6237 11712,6321 11841,6417 11959,6525 12067,6644 12163,6772 12247,6910 12318,7056 12374,7209 12415,7369 12441,7534 12449,7705 12441,7875 12415,8040 12374,8200 12318,8353 12247,8499 12163,8637 12067,8766 11959,8884 11841,8992 11712,9088 11575,9172 11429,9243 11276,9299 11116,9340 10951,9366 10781,9374 10611,9366 10445,9340 10286,9299 10132,9243 9987,9172 9849,9088 9720,8992 9602,8884 9494,8766 9398,8637 9314,8499 9244,8353 9187,8200 9146,8040 9121,7875 9112,7705 9121,7534 9146,7369 9187,7209 9244,7056 9314,6910 9398,6772 9494,6644 9602,6525 9720,6417 9849,6321 9987,6237 10132,6167 10286,6110 10445,6069 10611,6044 10781,6035 Z"/>
        </g>
       </g>
       <g class="com.sun.star.drawing.PolyPolygonShape">
        <g id="id6">
         <rect class="BoundingBox" stroke="none" fill="none" x="13616" y="9590" width="2038" height="638"/>
         <path fill="rgb(0,0,0)" stroke="none" d="M 13616,10227 L 13616,9591 15652,9591 15652,10227 13616,10227 Z"/>
        </g>
       </g>
       <g class="com.sun.star.drawing.PolyPolygonShape">
        <g id="id7">
         <rect class="BoundingBox" stroke="none" fill="none" x="16328" y="6746" width="2952" height="2911"/>
         <path fill="rgb(201,33,30)" stroke="none" d="M 17803,9656 L 17946,9650 18086,9631 18224,9600 18357,9558 18484,9503 18606,9438 18721,9361 18828,9273 18925,9174 19013,9065 19090,8946 19155,8816 19208,8677 19246,8527 19270,8369 19278,8201 19270,8033 19246,7874 19208,7724 19155,7585 19090,7455 19013,7335 18925,7226 18828,7128 18721,7040 18606,6964 18484,6898 18357,6844 18224,6802 18086,6771 17946,6753 17803,6747 17661,6753 17521,6771 17383,6802 17250,6844 17123,6898 17001,6964 16886,7040 16779,7128 16681,7226 16594,7335 16517,7455 16451,7585 16399,7724 16361,7874 16337,8033 16329,8201 16337,8369 16361,8527 16399,8677 16451,8816 16517,8946 16594,9065 16681,9174 16779,9273 16886,9361 17001,9438 17123,9503 17250,9558 17383,9600 17521,9631 17661,9650 17803,9656 Z M 17803,9055 L 17719,9051 17640,9040 17566,9021 17496,8994 17432,8961 17373,8921 17319,8875 17270,8822 17227,8763 17190,8698 17157,8628 17131,8552 17110,8472 17095,8386 17086,8296 17083,8201 17086,8107 17095,8018 17110,7933 17131,7852 17157,7777 17190,7707 17227,7642 17270,7583 17319,7530 17373,7483 17432,7443 17496,7409 17566,7383 17640,7363 17719,7352 17803,7348 17888,7352 17967,7363 18041,7383 18111,7409 18175,7443 18234,7483 18288,7530 18337,7583 18380,7642 18417,7707 18450,7777 18476,7852 18497,7933 18512,8018 18521,8107 18524,8201 18521,8296 18512,8386 18497,8472 18476,8552 18450,8628 18417,8698 18380,8763 18337,8822 18288,8875 18234,8921 18175,8961 18111,8994 18041,9021 17967,9040 17888,9051 17803,9055 Z"/>
        </g>
       </g>
       <g class="com.sun.star.drawing.PolyPolygonShape">
        <g id="id8">
         <rect class="BoundingBox" stroke="none" fill="none" x="20296" y="6272" width="1472" height="4120"/>
         <path fill="rgb(0,0,0)" stroke="none" d="M 20297,10391 L 20377,10276 20454,10159 20598,9914 20728,9657 20846,9387 20897,9249 20942,9108 20980,8965 21011,8820 21036,8673 21053,8524 21063,8373 21067,8220 21065,8087 21058,7955 21048,7824 21033,7696 21014,7569 20991,7443 20964,7319 20932,7196 20897,7075 20856,6956 20810,6838 20759,6722 20703,6607 20642,6494 20576,6382 20505,6272 21221,6272 21284,6380 21344,6490 21401,6602 21453,6716 21502,6832 21547,6950 21588,7070 21625,7191 21658,7315 21687,7439 21712,7564 21731,7689 21747,7816 21758,7943 21765,8071 21767,8200 21764,8354 21755,8506 21739,8657 21718,8805 21690,8951 21656,9095 21617,9237 21571,9378 21520,9515 21465,9649 21406,9781 21343,9909 21276,10034 21205,10156 21130,10275 21052,10391 20297,10391 Z"/>
        </g>
       </g>
       <g class="com.sun.star.drawing.PolyPolygonShape">
        <g id="id9">
         <rect class="BoundingBox" stroke="none" fill="none" x="22503" y="5359" width="4690" height="4689"/>
         <path fill="rgb(0,0,0)" stroke="none" d="M 27191,5528 L 27023,5359 22504,9878 22673,10047 27191,5528 Z"/>
        </g>
       </g>
      </g>
     </g>
    </g>
   </g>
  </g>
 </g>
</svg>