<?xml version="1.0" encoding="UTF-8"?>
<!DOCTYPE svg PUBLIC "-//W3C//DTD SVG 1.1//EN" "http://www.w3.org/Graphics/SVG/1.1/DTD/svg11.dtd">
<svg version="1.2" width="280mm" height="157.5mm" viewBox="0 0 28000 15750" preserveAspectRatio="xMidYMid" fill-rule="evenodd" stroke-width="28.222" stroke-linejoin="round" xmlns="http://www.w3.org/2000/svg" xmlns:ooo="http://xml.openoffice.org/svg/export" xmlns:xlink="http://www.w3.org/1999/xlink" xmlns:presentation="http://sun.com/xmlns/staroffice/presentation" xmlns:smil="http://www.w3.org/2001/SMIL20/" xmlns:anim="urn:oasis:names:tc:opendocument:xmlns:animation:1.0" xml:space="preserve">
 <defs class="ClipPathGroup">
  <clipPath id="presentation_clip_path" clipPathUnits="userSpaceOnUse">
   <rect x="0" y="0" width="28000" height="15750"/>
  </clipPath>
  <clipPath id="presentation_clip_path_shrink" clipPathUnits="userSpaceOnUse">
   <rect x="28" y="15" width="27944" height="15719"/>
  </clipPath>
 </defs>
 <defs class="TextShapeIndex">
  <g ooo:slide="id1" ooo:id-list="id3 id4 id5 id6"/>
 </defs>
 <defs class="EmbeddedBulletChars">
  <g id="bullet-char-template-57356" transform="scale(0.00048828125,-0.00048828125)">
   <path d="M 580,1141 L 1163,571 580,0 -4,571 580,1141 Z"/>
  </g>
  <g id="bullet-char-template-57354" transform="scale(0.00048828125,-0.00048828125)">
   <path d="M 8,1128 L 1137,1128 1137,0 8,0 8,1128 Z"/>
  </g>
  <g id="bullet-char-template-10146" transform="scale(0.00048828125,-0.00048828125)">
   <path d="M 174,0 L 602,739 174,1481 1456,739 174,0 Z M 1358,739 L 309,1346 659,739 1358,739 Z"/>
  </g>
  <g id="bullet-char-template-10132" transform="scale(0.00048828125,-0.00048828125)">
   <path d="M 2015,739 L 1276,0 717,0 1260,543 174,543 174,936 1260,936 717,1481 1274,1481 2015,739 Z"/>
  </g>
  <g id="bullet-char-template-10007" transform="scale(0.00048828125,-0.00048828125)">
   <path d="M 0,-2 C -7,14 -16,27 -25,37 L 356,567 C 262,823 215,952 215,954 215,979 228,992 255,992 264,992 276,990 289,987 310,991 331,999 354,1012 L 381,999 492,748 772,1049 836,1024 860,1049 C 881,1039 901,1025 922,1006 886,937 835,863 770,784 769,783 710,716 594,584 L 774,223 C 774,196 753,168 711,139 L 727,119 C 717,90 699,76 672,76 641,76 570,178 457,381 L 164,-76 C 142,-110 111,-127 72,-127 30,-127 9,-110 8,-76 1,-67 -2,-52 -2,-32 -2,-23 -1,-13 0,-2 Z"/>
  </g>
  <g id="bullet-char-template-10004" transform="scale(0.00048828125,-0.00048828125)">
   <path d="M 285,-33 C 182,-33 111,30 74,156 52,228 41,333 41,471 41,549 55,616 82,672 116,743 169,778 240,778 293,778 328,747 346,684 L 369,508 C 377,444 397,411 428,410 L 1163,1116 C 1174,1127 1196,1133 1229,1133 1271,1133 1292,1118 1292,1087 L 1292,965 C 1292,929 1282,901 1262,881 L 442,47 C 390,-6 338,-33 285,-33 Z"/>
  </g>
  <g id="bullet-char-template-9679" transform="scale(0.00048828125,-0.00048828125)">
   <path d="M 813,0 C 632,0 489,54 383,161 276,268 223,411 223,592 223,773 276,916 383,1023 489,1130 632,1184 813,1184 992,1184 1136,1130 1245,1023 1353,916 1407,772 1407,592 1407,412 1353,268 1245,161 1136,54 992,0 813,0 Z"/>
  </g>
  <g id="bullet-char-template-8226" transform="scale(0.00048828125,-0.00048828125)">
   <path d="M 346,457 C 273,457 209,483 155,535 101,586 74,649 74,723 74,796 101,859 155,911 209,963 273,989 346,989 419,989 480,963 531,910 582,859 608,796 608,723 608,648 583,586 532,535 482,483 420,457 346,457 Z"/>
  </g>
  <g id="bullet-char-template-8211" transform="scale(0.00048828125,-0.00048828125)">
   <path d="M -4,459 L 1135,459 1135,606 -4,606 -4,459 Z"/>
  </g>
  <g id="bullet-char-template-61548" transform="scale(0.00048828125,-0.00048828125)">
   <path d="M 173,740 C 173,903 231,1043 346,1159 462,1274 601,1332 765,1332 928,1332 1067,1274 1183,1159 1299,1043 1357,903 1357,740 1357,577 1299,437 1183,322 1067,206 928,148 765,148 601,148 462,206 346,322 231,437 173,577 173,740 Z"/>
  </g>
 </defs>
 <g>
  <g id="id2" class="Master_Slide">
   <g id="bg-id2" class="Background"/>
   <g id="bo-id2" class="BackgroundObjects"/>
  </g>
 </g>
 <g class="SlideGroup">
  <g>
   <g id="container-id1">
    <g id="id1" class="Slide" clip-path="url(#presentation_clip_path)">
     <g class="Page">
      <g class="Group">
       <g class="com.sun.star.drawing.PolyPolygonShape">
        <g id="id3">
         <rect class="BoundingBox" stroke="none" fill="none" x="2372" y="3843" width="6820" height="8064"/>
         <path fill="rgb(0,0,0)" stroke="none" d="M 5787,11906 L 5339,11892 4924,11850 4544,11781 4197,11684 4036,11625 3884,11559 3741,11486 3605,11406 3479,11319 3360,11225 3251,11124 3149,11017 3055,10902 2967,10780 2885,10650 2810,10514 2740,10370 2676,10218 2567,9893 2482,9539 2421,9156 2385,8743 2373,8302 2373,3844 4246,3844 4246,8456 4253,8737 4274,9000 4290,9124 4309,9244 4332,9359 4359,9469 4390,9575 4429,9674 4474,9766 4526,9853 4585,9934 4651,10009 4724,10077 4803,10139 4846,10168 4891,10195 4939,10220 4989,10243 5097,10284 5215,10317 5343,10343 5481,10362 5629,10373 5787,10376 5945,10373 6093,10362 6231,10343 6358,10317 6475,10284 6582,10243 6632,10220 6679,10195 6724,10168 6766,10139 6844,10077 6915,10009 6980,9934 7038,9853 7090,9766 7135,9674 7173,9575 7204,9469 7231,9359 7254,9244 7273,9124 7289,9000 7310,8737 7317,8456 7317,3844 9190,3844 9190,8302 9178,8743 9141,9156 9080,9539 8995,9893 8885,10218 8820,10370 8750,10514 8674,10650 8591,10780 8503,10902 8408,11017 8306,11124 8196,11225 8077,11319 7951,11406 7816,11486 7672,11559 7521,11625 7361,11684 7017,11781 6640,11850 6230,11892 5787,11906 Z"/>
        </g>
       </g>
       <g class="com.sun.star.drawing.PolyPolygonShape">
        <g id="id4">
         <rect class="BoundingBox" stroke="none" fill="none" x="9712" y="5883" width="8575" height="5883"/>
         <path fill="rgb(0,0,0)" stroke="none" d="M 11183,11765 L 9713,5884 11491,5884 12381,9868 13140,5884 14847,5884 15606,9868 16495,5884 18285,5884 16815,11765 14847,11765 13993,7544 13151,11765 11183,11765 Z"/>
        </g>
       </g>
       <g class="com.sun.star.drawing.PolyPolygonShape">
        <g id="id5">
         <rect class="BoundingBox" stroke="none" fill="none" x="18809" y="3843" width="6819" height="8064"/>
         <path fill="rgb(0,0,0)" stroke="none" d="M 22224,11906 L 21775,11892 21361,11850 20980,11781 20634,11684 20473,11625 20321,11559 20177,11486 20042,11406 19915,11319 19797,11225 19687,11124 19586,11017 19492,10902 19404,10780 19322,10650 19246,10514 19176,10370 19112,10218 19003,9893 18918,9539 18858,9156 18821,8743 18809,8302 18809,3844 20682,3844 20682,8456 20690,8737 20711,9000 20726,9124 20746,9244 20769,9359 20795,9469 20827,9575 20865,9674 20910,9766 20963,9853 21022,9934 21087,10009 21160,10077 21240,10139 21282,10168 21328,10195 21375,10220 21426,10243 21534,10284 21652,10317 21780,10343 21918,10362 22066,10373 22224,10376 22382,10373 22530,10362 22667,10343 22794,10317 22912,10284 23019,10243 23068,10220 23115,10195 23160,10168 23202,10139 23280,10077 23352,10009 23417,9934 23475,9853 23526,9766 23571,9674 23609,9575 23641,9469 23667,9359 23690,9244 23709,9124 23725,9000 23746,8737 23753,8456 23753,3844 25627,3844 25627,8302 25615,8743 25578,9156 25517,9539 25431,9893 25321,10218 25257,10370 25187,10514 25110,10650 25028,10780 24939,10902 24844,11017 24742,11124 24632,11225 24514,11319 24387,11406 24252,11486 24109,11559 23957,11625 23798,11684 23454,11781 23077,11850 22667,11892 22224,11906 Z"/>
        </g>
       </g>
      </g>
      <g class="com.sun.star.drawing.PolyPolygonShape">
       <g id="id6">
        <rect class="BoundingBox" stroke="none" fill="none" x="24642" y="636" width="3160" height="3009"/>
        <path fill="rgb(201,33,30)" stroke="none" d="M 25667,3644 L 24993,3160 25553,2382 24642,2088 24898,1301 25809,1595 25809,637 26643,637 26643,1595 27535,1301 27800,2088 26899,2382 27459,3160 26786,3644 26226,2875 25667,3644 Z"/>
       </g>
      </g>
     </g>
    </g>
   </g>
  </g>
 </g>
</svg>